<?xml version="1.0" encoding="UTF-8"?>
<!DOCTYPE svg PUBLIC "-//W3C//DTD SVG 1.1//EN" "http://www.w3.org/Graphics/SVG/1.1/DTD/svg11.dtd">
<svg xmlns="http://www.w3.org/2000/svg" version="1.1" width="1024px" height="1024px" style="shape-rendering:geometricPrecision; text-rendering:geometricPrecision; image-rendering:optimizeQuality; fill-rule:evenodd; clip-rule:evenodd" xmlns:xlink="http://www.w3.org/1999/xlink">
<g><path style="opacity:1" fill="#fef1ee" d="M -0.5,-0.5 C 340.833,-0.5 682.167,-0.5 1023.5,-0.5C 1023.5,340.833 1023.5,682.167 1023.5,1023.5C 682.167,1023.5 340.833,1023.5 -0.5,1023.5C -0.5,682.167 -0.5,340.833 -0.5,-0.5 Z"/></g>
<g><path style="opacity:1" fill="#fe67c4" d="M 215.5,330.5 C 246.16,331.403 276.826,331.569 307.5,331C 310.973,331.319 313.806,332.819 316,335.5C 321.749,346.079 325.915,357.246 328.5,369C 328.151,375.794 324.817,377.794 318.5,375C 312.866,368.364 306.866,362.031 300.5,356C 290.249,348.873 278.916,345.873 266.5,347C 265.692,347.308 265.025,347.808 264.5,348.5C 263.353,361.454 263.186,374.454 264,387.5C 266.21,390.29 269.044,391.123 272.5,390C 276.979,388.729 281.312,387.062 285.5,385C 288.833,381.667 292.167,378.333 295.5,375C 299.563,374.018 302.729,375.185 305,378.5C 305.3,388.512 305.8,398.512 306.5,408.5C 307.151,418.709 302.818,422.209 293.5,419C 287.503,410.332 279.17,405.832 268.5,405.5C 266.617,405.876 265.117,406.876 264,408.5C 263.333,421.5 263.333,434.5 264,447.5C 264.833,448.333 265.667,449.167 266.5,450C 284.45,450.462 298.95,443.629 310,429.5C 313.889,422.89 318.389,416.723 323.5,411C 331.314,408.13 334.814,410.964 334,419.5C 341.832,407.654 352.665,399.82 366.5,396C 373.921,394.311 381.254,392.311 388.5,390C 399.497,384.414 400.164,378.08 390.5,371C 384.443,369.838 378.777,370.838 373.5,374C 367.5,381.333 360.833,388 353.5,394C 344.237,397.369 338.237,394.369 335.5,385C 337.886,372.608 345.22,364.608 357.5,361C 370.937,357.615 384.603,356.615 398.5,358C 419.855,360.687 433.021,372.52 438,393.5C 438.333,408.5 438.667,423.5 439,438.5C 439.791,445.08 442.457,450.747 447,455.5C 448.44,463.393 445.107,466.727 437,465.5C 431.349,464.703 425.682,464.036 420,463.5C 414.173,464.42 408.339,464.92 402.5,465C 400.919,464.293 399.419,463.46 398,462.5C 397.125,459.117 396.125,455.784 395,452.5C 394.107,451.919 393.107,451.585 392,451.5C 384.851,455.303 377.685,459.136 370.5,463C 357.922,467.862 346.756,465.696 337,456.5C 332.027,449.322 329.694,441.322 330,432.5C 328.288,441.348 325.955,450.014 323,458.5C 321.5,461.333 319.333,463.5 316.5,465C 295.169,464.858 273.835,464.358 252.5,463.5C 242.444,463.39 232.444,464.057 222.5,465.5C 211.467,464.03 209.633,459.03 217,450.5C 218.399,447.637 219.399,444.637 220,441.5C 220.667,412.167 220.667,382.833 220,353.5C 217.073,348.149 214.573,342.649 212.5,337C 212.391,334.288 213.391,332.122 215.5,330.5 Z"/></g>
<g><path style="opacity:1" fill="#fe68c4" d="M 540.5,424.5 C 540.5,426.5 540.5,428.5 540.5,430.5C 539.173,444.679 531.84,454.512 518.5,460C 498.842,467.297 479.175,467.297 459.5,460C 448.038,456.54 441.705,448.874 440.5,437C 442.946,427.96 448.612,424.96 457.5,428C 462.693,432.693 467.36,437.86 471.5,443.5C 474.322,446.413 477.655,448.58 481.5,450C 487.5,450.667 493.5,450.667 499.5,450C 501.329,449.727 502.829,448.893 504,447.5C 505.227,443.409 504.394,439.909 501.5,437C 487.454,431.538 473.454,425.871 459.5,420C 441.732,408.264 437.565,392.764 447,373.5C 455.854,363.43 467.02,357.93 480.5,357C 500.777,354.513 518.944,359.346 535,371.5C 539.135,376.474 540.468,382.14 539,388.5C 533.457,396.397 526.624,397.563 518.5,392C 513.585,387.756 509.419,382.923 506,377.5C 498.518,370.124 490.184,368.79 481,373.5C 477.834,380.178 479.334,385.344 485.5,389C 493.605,392.11 501.938,394.443 510.5,396C 521.409,398.361 530.242,403.861 537,412.5C 539.099,416.231 540.266,420.231 540.5,424.5 Z"/></g>
<g><path style="opacity:1" fill="#fe67c4" d="M 542.5,426.5 C 542.737,425.209 542.404,424.209 541.5,423.5C 537.506,383.004 555.673,360.67 596,356.5C 609.22,356.93 621.72,360.097 633.5,366C 649.394,378.635 652.894,394.135 644,412.5C 636.255,421.791 626.422,427.625 614.5,430C 606.446,430.747 598.446,431.747 590.5,433C 585.884,440.481 587.884,445.814 596.5,449C 605.681,450.495 614.014,448.495 621.5,443C 625.856,437.646 630.523,432.646 635.5,428C 647.329,425.841 651.496,430.674 648,442.5C 643.916,450.969 637.416,456.802 628.5,460C 604.847,468.896 582.18,466.896 560.5,454C 551.354,446.871 545.354,437.704 542.5,426.5 Z"/></g>
<g><path style="opacity:1" fill="#fef0ee" d="M 593.5,370.5 C 596.32,370.248 598.986,370.748 601.5,372C 604.567,375.297 606.733,379.131 608,383.5C 609.499,394.249 608.166,404.583 604,414.5C 597.863,420.255 592.53,419.588 588,412.5C 583.864,401.267 583.531,389.934 587,378.5C 588.305,375.039 590.471,372.372 593.5,370.5 Z"/></g>
<g><path style="opacity:1" fill="#702ea2" d="M 691.5,513.5 C 685.257,517.066 679.257,521.066 673.5,525.5C 663.634,506.044 657.8,485.377 656,463.5C 643.506,468.573 634.506,477.24 629,489.5C 625.642,501.825 627.476,513.159 634.5,523.5C 627.53,525.666 620.53,527.999 613.5,530.5C 605.253,507.394 610.586,487.894 629.5,472C 637.301,466.014 645.801,461.181 655,457.5C 655.333,448.167 655.667,438.833 656,429.5C 658.989,415.177 667.156,405.01 680.5,399C 693.666,395.863 702.166,400.697 706,413.5C 706.376,429.912 699.543,442.412 685.5,451C 681.856,453.656 677.856,455.489 673.5,456.5C 674.991,474.797 679.158,492.463 686,509.5C 693.879,499.856 698.213,488.856 699,476.5C 695.994,474.48 694.161,471.813 693.5,468.5C 704.187,468.168 714.854,468.501 725.5,469.5C 725.167,470.167 724.833,470.833 724.5,471.5C 720.31,472.845 716.476,474.845 713,477.5C 705.067,489.031 697.9,501.031 691.5,513.5 Z"/></g>
<g><path style="opacity:1" fill="#ffefee" d="M 390.5,403.5 C 392.792,403.244 394.959,403.577 397,404.5C 397.863,412.564 397.53,420.564 396,428.5C 393.679,436.399 388.512,439.899 380.5,439C 377.375,438.021 374.875,436.187 373,433.5C 370.168,425.584 371.335,418.417 376.5,412C 381.064,408.89 385.731,406.056 390.5,403.5 Z"/></g>
<g><path style="opacity:1" fill="#fceeed" d="M 673.5,450.5 C 672.507,442.016 672.174,433.349 672.5,424.5C 672.564,417.205 675.231,411.039 680.5,406C 687.205,404.269 691.372,406.769 693,413.5C 694.383,430.07 687.883,442.404 673.5,450.5 Z"/></g>
<g><path style="opacity:1" fill="#ffb4dc" d="M 541.5,423.5 C 542.404,424.209 542.737,425.209 542.5,426.5C 541.833,427.833 541.167,429.167 540.5,430.5C 540.5,428.5 540.5,426.5 540.5,424.5C 541.167,424.5 541.5,424.167 541.5,423.5 Z"/></g>
<g><path style="opacity:1" fill="#cfb0d5" d="M 672.5,424.5 C 672.174,433.349 672.507,442.016 673.5,450.5C 673.44,451.043 673.107,451.376 672.5,451.5C 671.178,442.342 671.178,433.342 672.5,424.5 Z"/></g>
<g><path style="opacity:1" fill="#fdefed" d="M 673.5,525.5 C 671.159,527.829 668.492,529.829 665.5,531.5C 664.672,527.204 664.172,522.871 664,518.5C 663.112,514.474 660.612,512.474 656.5,512.5C 649.656,516.977 642.323,520.643 634.5,523.5C 627.476,513.159 625.642,501.825 629,489.5C 634.506,477.24 643.506,468.573 656,463.5C 657.8,485.377 663.634,506.044 673.5,525.5 Z"/></g>
<g><path style="opacity:1" fill="#fe66c4" d="M 369.5,468.5 C 375.938,466.756 379.772,469.09 381,475.5C 381.333,515.5 381.667,555.5 382,595.5C 383.08,601.66 385.747,606.993 390,611.5C 391.229,615.88 389.729,618.713 385.5,620C 382.833,620.167 380.167,620.333 377.5,620.5C 362.839,619.764 348.173,619.598 333.5,620C 330.651,617.441 329.817,614.274 331,610.5C 336.567,603.924 339.234,596.257 339,587.5C 339.667,559.833 339.667,532.167 339,504.5C 337.523,500.015 334.857,496.349 331,493.5C 329.462,488.88 330.962,485.713 335.5,484C 342.923,481.977 350.256,479.644 357.5,477C 362.094,474.882 366.094,472.048 369.5,468.5 Z"/></g>
<g><path style="opacity:1" fill="#fe67c4" d="M 217.5,486.5 C 243.163,487.37 268.829,487.537 294.5,487C 316.918,492 324.751,505.5 318,527.5C 315.5,531.333 312.333,534.5 308.5,537C 300.323,540.762 291.99,543.929 283.5,546.5C 291.46,546.739 299.46,546.906 307.5,547C 325.521,553.021 334.021,565.521 333,584.5C 332.154,598.374 325.654,608.541 313.5,615C 307.37,617.449 301.037,619.116 294.5,620C 271.49,619.956 248.49,620.122 225.5,620.5C 222.833,620.333 220.167,620.167 217.5,620C 214.009,618.179 212.843,615.346 214,611.5C 218.543,606.747 221.209,601.08 222,594.5C 222.667,566.5 222.667,538.5 222,510.5C 221.489,508.122 220.822,505.788 220,503.5C 216.981,500.491 214.814,496.991 213.5,493C 213.722,490.038 215.056,487.871 217.5,486.5 Z"/></g>
<g><path style="opacity:1" fill="#fef0ee" d="M 267.5,502.5 C 274.778,501.272 279.278,504.272 281,511.5C 281.877,518.249 281.544,524.916 280,531.5C 277.354,538.834 272.687,540.834 266,537.5C 265.333,526.5 265.333,515.5 266,504.5C 266.717,503.956 267.217,503.289 267.5,502.5 Z"/></g>
<g><path style="opacity:1" fill="#fe67c4" d="M 431.5,512.5 C 442.585,512.227 453.585,513.06 464.5,515C 486.106,521.952 498.273,536.785 501,559.5C 504.915,533.473 519.749,517.973 545.5,513C 563.915,510.585 580.915,514.252 596.5,524C 612.538,539.122 618.372,557.622 614,579.5C 609.969,597.524 599.469,610.024 582.5,617C 570.078,620.388 557.412,621.388 544.5,620C 519.127,615.293 504.627,600.126 501,574.5C 497.41,600.09 482.91,615.257 457.5,620C 444.581,621.388 431.914,620.388 419.5,617C 402.531,610.024 392.031,597.524 388,579.5C 382.997,544.112 397.497,521.779 431.5,512.5 Z"/></g>
<g><path style="opacity:1" fill="#fe66c4" d="M 673.5,525.5 C 679.257,521.066 685.257,517.066 691.5,513.5C 691.56,514.043 691.893,514.376 692.5,514.5C 702.359,511.267 711.692,512.434 720.5,518C 725.258,522.367 729.425,527.2 733,532.5C 738.776,528.359 744.276,523.859 749.5,519C 763.527,510.37 777.527,510.37 791.5,519C 795.533,523.899 798.366,529.399 800,535.5C 800.333,555.167 800.667,574.833 801,594.5C 801.945,601.012 804.611,606.679 809,611.5C 810.12,614.999 809.287,617.833 806.5,620C 793.825,619.598 781.159,619.764 768.5,620.5C 764.719,621.173 761.886,619.839 760,616.5C 758.94,594.89 757.94,573.223 757,551.5C 755.23,542.863 750.064,539.696 741.5,542C 736.219,545.722 733.386,550.888 733,557.5C 732.333,569.833 732.333,582.167 733,594.5C 734.32,600.807 736.987,606.474 741,611.5C 741.895,614.466 741.395,617.133 739.5,619.5C 726.368,619.473 713.201,619.806 700,620.5C 696.455,620.961 693.788,619.628 692,616.5C 690.69,596.589 690.023,576.589 690,556.5C 689.724,550.446 687.224,545.613 682.5,542C 674.457,539.769 669.29,542.602 667,550.5C 664.532,565.061 663.865,579.728 665,594.5C 665.945,601.012 668.611,606.679 673,611.5C 674.157,615.346 672.991,618.179 669.5,620C 666.667,620.167 663.833,620.333 661,620.5C 646.505,619.706 632.005,619.539 617.5,620C 614.797,619.135 613.464,617.301 613.5,614.5C 615.958,609.583 618.458,604.583 621,599.5C 622.577,582.539 622.91,565.539 622,548.5C 619.72,544.553 617.053,540.887 614,537.5C 613.503,535.19 613.337,532.857 613.5,530.5C 620.53,527.999 627.53,525.666 634.5,523.5C 642.323,520.643 649.656,516.977 656.5,512.5C 660.612,512.474 663.112,514.474 664,518.5C 664.172,522.871 664.672,527.204 665.5,531.5C 668.492,529.829 671.159,527.829 673.5,525.5 Z"/></g>
<g><path style="opacity:1" fill="#fef0ee" d="M 440.5,527.5 C 448.157,526.647 452.99,529.98 455,537.5C 457.92,555.441 458.253,573.441 456,591.5C 455.18,596.987 452.68,601.487 448.5,605C 441.925,606.962 437.425,604.795 435,598.5C 430.354,580.414 429.354,562.081 432,543.5C 433.032,537.098 435.865,531.765 440.5,527.5 Z"/></g>
<g><path style="opacity:1" fill="#fef0ee" d="M 554.5,527.5 C 561.231,526.448 565.731,529.114 568,535.5C 569.313,539.42 570.313,543.42 571,547.5C 572.121,562.931 571.455,578.265 569,593.5C 567.692,602.832 562.526,606.665 553.5,605C 547.765,598.679 544.931,591.179 545,582.5C 544.143,569.129 544.476,555.796 546,542.5C 546.892,536.248 549.726,531.248 554.5,527.5 Z"/></g>
<g><path style="opacity:1" fill="#fef0ee" d="M 267.5,555.5 C 277.07,553.932 283.57,557.599 287,566.5C 290.47,577.268 290.136,587.935 286,598.5C 284.332,602.165 281.499,604.332 277.5,605C 274.167,605.667 270.833,605.667 267.5,605C 267,604.5 266.5,604 266,603.5C 265.333,588.167 265.333,572.833 266,557.5C 266.717,556.956 267.217,556.289 267.5,555.5 Z"/></g>
<g><path style="opacity:1" fill="#7a3ca7" d="M 405.5,644.5 C 410.599,644.175 415.599,644.675 420.5,646C 423.943,655.087 420.61,659.254 410.5,658.5C 410.5,661.167 410.5,663.833 410.5,666.5C 408.833,666.5 407.167,666.5 405.5,666.5C 405.5,659.167 405.5,651.833 405.5,644.5 Z"/></g>
<g><path style="opacity:1" fill="#6d2aa1" d="M 439.5,647.5 C 435.833,647.5 432.167,647.5 428.5,647.5C 428.5,649.5 428.5,651.5 428.5,653.5C 431.689,654.166 435.023,654.833 438.5,655.5C 435.023,656.167 431.689,656.834 428.5,657.5C 428.5,659.5 428.5,661.5 428.5,663.5C 432.5,663.5 436.5,663.5 440.5,663.5C 440.5,664.5 440.5,665.5 440.5,666.5C 435.167,666.5 429.833,666.5 424.5,666.5C 424.5,659.167 424.5,651.833 424.5,644.5C 429.5,644.5 434.5,644.5 439.5,644.5C 439.5,645.5 439.5,646.5 439.5,647.5 Z"/></g>
<g><path style="opacity:1" fill="#7738a6" d="M 442.5,644.5 C 447.179,644.334 451.845,644.501 456.5,645C 460.747,649.163 460.414,652.829 455.5,656C 456.416,656.374 457.25,656.874 458,657.5C 458.837,660.365 459.67,663.198 460.5,666C 458.866,666.494 457.199,666.66 455.5,666.5C 456.239,660.268 453.572,657.268 447.5,657.5C 447.5,660.5 447.5,663.5 447.5,666.5C 445.833,666.5 444.167,666.5 442.5,666.5C 442.5,659.167 442.5,651.833 442.5,644.5 Z"/></g>
<g><path style="opacity:1" fill="#6d2aa0" d="M 462.5,644.5 C 463.833,644.5 465.167,644.5 466.5,644.5C 466.5,651.833 466.5,659.167 466.5,666.5C 465.167,666.5 463.833,666.5 462.5,666.5C 462.5,659.167 462.5,651.833 462.5,644.5 Z"/></g>
<g><path style="opacity:1" fill="#7333a4" d="M 475.5,644.5 C 487.489,643.323 492.322,648.656 490,660.5C 486.723,666.109 481.89,667.942 475.5,666C 473,664.833 471.167,663 470,660.5C 468.016,653.66 469.85,648.327 475.5,644.5 Z"/></g>
<g><path style="opacity:1" fill="#6f2da2" d="M 493.5,644.5 C 498.58,644.25 503.58,644.75 508.5,646C 512.259,649.743 513.426,654.243 512,659.5C 511.226,661.939 509.726,663.773 507.5,665C 502.934,666.309 498.267,666.809 493.5,666.5C 493.5,659.167 493.5,651.833 493.5,644.5 Z"/></g>
<g><path style="opacity:1" fill="#702fa2" d="M 520.5,644.5 C 524.846,644.334 529.179,644.501 533.5,645C 537.035,647.838 537.368,651.005 534.5,654.5C 538.927,659.202 538.26,663.035 532.5,666C 528.514,666.499 524.514,666.666 520.5,666.5C 520.5,659.167 520.5,651.833 520.5,644.5 Z"/></g>
<g><path style="opacity:1" fill="#7a3ca7" d="M 539.5,644.5 C 544.833,644.5 550.167,644.5 555.5,644.5C 555.5,645.5 555.5,646.5 555.5,647.5C 551.833,647.5 548.167,647.5 544.5,647.5C 544.5,649.5 544.5,651.5 544.5,653.5C 547.833,653.5 551.167,653.5 554.5,653.5C 554.5,654.833 554.5,656.167 554.5,657.5C 551.167,657.5 547.833,657.5 544.5,657.5C 544.5,659.167 544.5,660.833 544.5,662.5C 548.167,662.5 551.833,662.5 555.5,662.5C 555.5,663.833 555.5,665.167 555.5,666.5C 550.167,666.5 544.833,666.5 539.5,666.5C 539.5,659.167 539.5,651.833 539.5,644.5 Z"/></g>
<g><path style="opacity:1" fill="#7536a5" d="M 560.5,644.5 C 563.518,644.335 566.518,644.502 569.5,645C 571.607,646.264 572.607,648.097 572.5,650.5C 569.545,648.614 566.211,647.614 562.5,647.5C 562.215,649.288 562.548,650.955 563.5,652.5C 567.159,653.324 570.326,654.99 573,657.5C 574.303,663.87 571.636,666.87 565,666.5C 560.38,667.049 557.547,665.049 556.5,660.5C 557.167,660.167 557.833,659.833 558.5,659.5C 560.482,661.126 562.649,662.46 565,663.5C 568.345,663.141 569.178,661.474 567.5,658.5C 563.97,657.485 560.803,655.819 558,653.5C 556.927,649.9 557.76,646.9 560.5,644.5 Z"/></g>
<g><path style="opacity:1" fill="#6d2ba1" d="M 581.5,666.5 C 581.5,660.167 581.5,653.833 581.5,647.5C 578.833,647.5 576.167,647.5 573.5,647.5C 573.5,646.5 573.5,645.5 573.5,644.5C 579.833,644.5 586.167,644.5 592.5,644.5C 592.5,645.5 592.5,646.5 592.5,647.5C 590.167,647.5 587.833,647.5 585.5,647.5C 585.5,653.833 585.5,660.167 585.5,666.5C 584.167,666.5 582.833,666.5 581.5,666.5 Z"/></g>
<g><path style="opacity:1" fill="#7b3ea8" d="M 594.5,644.5 C 596.167,644.5 597.833,644.5 599.5,644.5C 599.5,651.833 599.5,659.167 599.5,666.5C 597.833,666.5 596.167,666.5 594.5,666.5C 594.5,659.167 594.5,651.833 594.5,644.5 Z"/></g>
<g><path style="opacity:1" fill="#6d2aa1" d="M 617.5,647.5 C 613.833,647.5 610.167,647.5 606.5,647.5C 606.5,649.5 606.5,651.5 606.5,653.5C 609.689,654.166 613.023,654.833 616.5,655.5C 613.023,656.167 609.689,656.834 606.5,657.5C 606.5,659.5 606.5,661.5 606.5,663.5C 610.5,663.5 614.5,663.5 618.5,663.5C 618.5,664.5 618.5,665.5 618.5,666.5C 613.167,666.5 607.833,666.5 602.5,666.5C 602.5,659.167 602.5,651.833 602.5,644.5C 607.5,644.5 612.5,644.5 617.5,644.5C 617.5,645.5 617.5,646.5 617.5,647.5 Z"/></g>
<g><path style="opacity:1" fill="#caaad3" d="M 439.5,647.5 C 436.375,648.479 433.042,648.813 429.5,648.5C 429.5,650.167 429.5,651.833 429.5,653.5C 429.167,653.5 428.833,653.5 428.5,653.5C 428.5,651.5 428.5,649.5 428.5,647.5C 432.167,647.5 435.833,647.5 439.5,647.5 Z"/></g>
<g><path style="opacity:1" fill="#f6e6ea" d="M 477.5,647.5 C 485.086,647.94 487.919,651.94 486,659.5C 482.049,664.818 478.049,664.818 474,659.5C 472.593,654.599 473.76,650.599 477.5,647.5 Z"/></g>
<g><path style="opacity:1" fill="#cbaad3" d="M 617.5,647.5 C 614.375,648.479 611.042,648.813 607.5,648.5C 607.5,650.167 607.5,651.833 607.5,653.5C 607.167,653.5 606.833,653.5 606.5,653.5C 606.5,651.5 606.5,649.5 606.5,647.5C 610.167,647.5 613.833,647.5 617.5,647.5 Z"/></g>
<g><path style="opacity:1" fill="#fcefed" d="M 410.5,648.5 C 412.833,648.5 415.167,648.5 417.5,648.5C 418.265,653.906 415.931,655.906 410.5,654.5C 410.5,652.5 410.5,650.5 410.5,648.5 Z"/></g>
<g><path style="opacity:1" fill="#f2e0e8" d="M 447.5,647.5 C 451.07,646.893 453.737,648.06 455.5,651C 453.737,653.94 451.07,655.107 447.5,654.5C 447.5,652.167 447.5,649.833 447.5,647.5 Z"/></g>
<g><path style="opacity:1" fill="#faebec" d="M 503.5,648.5 C 506.853,649.512 508.52,651.846 508.5,655.5C 508.378,657.791 507.545,659.791 506,661.5C 505.329,662.252 504.496,662.586 503.5,662.5C 501.833,662.5 500.167,662.5 498.5,662.5C 498.5,657.833 498.5,653.167 498.5,648.5C 500.167,648.5 501.833,648.5 503.5,648.5 Z"/></g>
<g><path style="opacity:1" fill="#f2e1e8" d="M 524.5,647.5 C 526.527,647.338 528.527,647.505 530.5,648C 531.833,649.667 531.833,651.333 530.5,653C 528.527,653.495 526.527,653.662 524.5,653.5C 524.5,651.5 524.5,649.5 524.5,647.5 Z"/></g>
<g><path style="opacity:1" fill="#d3b5d7" d="M 573.5,647.5 C 576.167,647.5 578.833,647.5 581.5,647.5C 581.5,653.833 581.5,660.167 581.5,666.5C 580.51,660.69 580.177,654.69 580.5,648.5C 577.941,648.802 575.607,648.468 573.5,647.5 Z"/></g>
<g><path style="opacity:1" fill="#ccacd3" d="M 503.5,648.5 C 501.833,648.5 500.167,648.5 498.5,648.5C 498.5,653.167 498.5,657.833 498.5,662.5C 500.167,662.5 501.833,662.5 503.5,662.5C 501.735,663.461 499.735,663.795 497.5,663.5C 497.5,658.167 497.5,652.833 497.5,647.5C 499.735,647.205 501.735,647.539 503.5,648.5 Z"/></g>
<g><path style="opacity:1" fill="#9663b7" d="M 428.5,653.5 C 428.833,653.5 429.167,653.5 429.5,653.5C 432.833,653.5 436.167,653.5 439.5,653.5C 439.5,654.833 439.5,656.167 439.5,657.5C 436.167,657.5 432.833,657.5 429.5,657.5C 429.167,657.5 428.833,657.5 428.5,657.5C 431.689,656.834 435.023,656.167 438.5,655.5C 435.023,654.833 431.689,654.166 428.5,653.5 Z"/></g>
<g><path style="opacity:1" fill="#9663b7" d="M 606.5,653.5 C 606.833,653.5 607.167,653.5 607.5,653.5C 610.833,653.5 614.167,653.5 617.5,653.5C 617.5,654.833 617.5,656.167 617.5,657.5C 614.167,657.5 610.833,657.5 607.5,657.5C 607.167,657.5 606.833,657.5 606.5,657.5C 609.689,656.834 613.023,656.167 616.5,655.5C 613.023,654.833 609.689,654.166 606.5,653.5 Z"/></g>
<g><path style="opacity:1" fill="#ccacd4" d="M 530.5,657.5 C 528.833,657.5 527.167,657.5 525.5,657.5C 525.5,659.167 525.5,660.833 525.5,662.5C 527.167,662.5 528.833,662.5 530.5,662.5C 528.735,663.461 526.735,663.795 524.5,663.5C 524.5,661.167 524.5,658.833 524.5,656.5C 526.735,656.205 528.735,656.539 530.5,657.5 Z"/></g>
<g><path style="opacity:1" fill="#fdefed" d="M 530.5,657.5 C 533.048,659.038 533.048,660.704 530.5,662.5C 528.833,662.5 527.167,662.5 525.5,662.5C 525.5,660.833 525.5,659.167 525.5,657.5C 527.167,657.5 528.833,657.5 530.5,657.5 Z"/></g>
<g><path style="opacity:1" fill="#bf9acc" d="M 428.5,657.5 C 428.833,657.5 429.167,657.5 429.5,657.5C 429.5,659.167 429.5,660.833 429.5,662.5C 433.371,662.185 437.038,662.518 440.5,663.5C 436.5,663.5 432.5,663.5 428.5,663.5C 428.5,661.5 428.5,659.5 428.5,657.5 Z"/></g>
<g><path style="opacity:1" fill="#bf9acc" d="M 606.5,657.5 C 606.833,657.5 607.167,657.5 607.5,657.5C 607.5,659.167 607.5,660.833 607.5,662.5C 611.371,662.185 615.038,662.518 618.5,663.5C 614.5,663.5 610.5,663.5 606.5,663.5C 606.5,661.5 606.5,659.5 606.5,657.5 Z"/></g>
</svg>
